<svg width="32" height="32" viewBox="0 0 32 32" fill="none" xmlns="http://www.w3.org/2000/svg">
<mask id="mask0_85_204" style="mask-type:luminance" maskUnits="userSpaceOnUse" x="0" y="0" width="32" height="32">
<path d="M9.5669 0.752701H22.4332C24.8275 0.752701 27.0058 1.7355 28.5862 3.31373C30.1688 4.89455 31.1514 7.07596 31.1514 9.47319V22.5294C31.1514 24.9214 30.1688 27.1003 28.591 28.6811L28.5862 28.6863C27.0032 30.2671 24.8249 31.2473 22.4358 31.2473H9.5669C7.17031 31.2473 4.98949 30.2645 3.4091 28.6863L3.34967 28.6191C1.80642 27.0457 0.848755 24.8917 0.848755 22.5268V9.47319C0.848755 7.07338 1.82871 4.89455 3.4091 3.31373C4.98949 1.73292 7.16773 0.752701 9.5669 0.752701ZM23.5524 8.45065L23.5695 8.47812H28.9285C28.7125 7.06853 28.0403 5.80304 27.0726 4.83252C25.8818 3.64133 24.2394 2.90181 22.4332 2.90181H20.2327L23.5524 8.45065ZM21.0737 8.47812L17.7366 2.90181H10.4177L13.7945 8.47812H21.0737ZM11.2962 8.47812L8.03108 3.08273C6.85489 3.36845 5.78064 3.97404 4.92715 4.83252C3.93748 5.81992 3.2876 7.09672 3.07157 8.47812H11.2962ZM29.0028 10.6272H2.99728V22.5294C2.99728 24.3086 3.71432 25.9291 4.87289 27.1155L4.92747 27.1671C6.11834 28.3587 7.76332 29.1008 9.5669 29.1008H22.4332C24.2394 29.1008 25.8818 28.3609 27.07 27.1723L27.0752 27.1675C28.2638 25.9785 29.0028 24.3357 29.0028 22.5294V10.6272ZM13.4893 14.3895L20.1458 18.72C20.2524 18.7894 20.3493 18.8786 20.4261 18.9881C20.5713 19.1995 20.6268 19.4598 20.5802 19.7119C20.5337 19.9641 20.3891 20.1875 20.1781 20.3331L13.5487 24.2465C13.3753 24.3887 13.1577 24.466 12.9334 24.4649C12.6762 24.4649 12.4295 24.3627 12.2476 24.1808C12.0657 23.9988 11.9635 23.752 11.9635 23.4947V15.1836H11.9683C11.9684 15.0067 12.017 14.8333 12.1087 14.6821C12.2003 14.5309 12.3317 14.4077 12.4884 14.3258C12.6451 14.244 12.8213 14.2067 12.9977 14.2179C13.1742 14.2291 13.3442 14.2884 13.4893 14.3895Z" fill="white"/>
</mask>
<g mask="url(#mask0_85_204)">
<path d="M16.0094 -12.9218C3.8614 -12.9218 0.305489 -12.9094 -0.385192 -12.8524C-2.87889 -12.6464 -4.43035 -12.2544 -6.12057 -11.4197C-7.37299 -10.8143 -8.50573 -9.99002 -9.46476 -8.98622C-11.3185 -7.06106 -12.5001 -4.59421 -12.8349 -1.95016C-13.0328 -0.596605 -13.0901 -0.321625 -13.1035 6.58852C-13.108 8.8916 -13.1035 11.9231 -13.1035 15.9891C-13.1035 28.0571 -13.0901 31.5856 -13.0319 32.2713C-12.8304 34.6829 -12.45 36.2002 -11.6442 37.8604C-10.8672 39.4424 -9.75456 40.8384 -8.3829 41.9522C-7.01124 43.0659 -5.41311 43.8711 -3.69849 44.3122C-2.3129 44.642 -0.896687 44.8284 0.527509 44.8684C1.24818 44.8995 8.59455 44.9218 15.945 44.9218C23.2954 44.9218 30.6462 44.9129 31.349 44.8773C32.8251 44.8496 34.2936 44.6585 35.7272 44.3078C37.4451 43.8697 39.0462 43.0642 40.4186 41.9475C41.791 40.8307 42.9016 39.4297 43.6729 37.8421C44.4924 36.124 44.9588 34.2607 45.0449 32.3612C45.0843 31.8628 45.1008 23.9164 45.1008 15.9806C45.1008 8.04486 45.0829 0.112206 45.0435 -0.386143C44.9605 -2.30678 44.4842 -4.19041 43.6438 -5.92182C43.0307 -7.19542 42.1862 -8.34549 41.1528 -9.31415C39.2104 -11.1504 36.7281 -12.3209 34.0687 -12.6549C32.7093 -12.852 32.4385 -12.9098 25.4815 -12.9218H16.0094Z" fill="url(#paint0_radial_85_204)"/>
</g>
<mask id="mask1_85_204" style="mask-type:luminance" maskUnits="userSpaceOnUse" x="0" y="0" width="32" height="32">
<path d="M9.5669 0.752701H22.4332C24.8275 0.752701 27.0058 1.7355 28.5862 3.31373C30.1688 4.89455 31.1514 7.07596 31.1514 9.47319V22.5294C31.1514 24.9214 30.1688 27.1003 28.591 28.6811L28.5862 28.6863C27.0032 30.2671 24.8249 31.2473 22.4358 31.2473H9.5669C7.17031 31.2473 4.98949 30.2645 3.4091 28.6863L3.34967 28.6191C1.80642 27.0457 0.848755 24.8917 0.848755 22.5268V9.47319C0.848755 7.07338 1.82871 4.89455 3.4091 3.31373C4.98949 1.73292 7.16773 0.752701 9.5669 0.752701ZM23.5524 8.45065L23.5695 8.47812H28.9285C28.7125 7.06853 28.0403 5.80304 27.0726 4.83252C25.8818 3.64133 24.2394 2.90181 22.4332 2.90181H20.2327L23.5524 8.45065ZM21.0737 8.47812L17.7366 2.90181H10.4177L13.7945 8.47812H21.0737ZM11.2962 8.47812L8.03108 3.08273C6.85489 3.36845 5.78064 3.97404 4.92715 4.83252C3.93748 5.81992 3.2876 7.09672 3.07157 8.47812H11.2962ZM29.0028 10.6272H2.99728V22.5294C2.99728 24.3086 3.71432 25.9291 4.87289 27.1155L4.92747 27.1671C6.11834 28.3587 7.76332 29.1008 9.5669 29.1008H22.4332C24.2394 29.1008 25.8818 28.3609 27.07 27.1723L27.0752 27.1675C28.2638 25.9785 29.0028 24.3357 29.0028 22.5294V10.6272ZM13.4893 14.3895L20.1458 18.72C20.2524 18.7894 20.3493 18.8786 20.4261 18.9881C20.5713 19.1995 20.6268 19.4598 20.5802 19.7119C20.5337 19.9641 20.3891 20.1875 20.1781 20.3331L13.5487 24.2465C13.3753 24.3887 13.1577 24.466 12.9334 24.4649C12.6762 24.4649 12.4295 24.3627 12.2476 24.1808C12.0657 23.9988 11.9635 23.752 11.9635 23.4947V15.1836H11.9683C11.9684 15.0067 12.017 14.8333 12.1087 14.6821C12.2003 14.5309 12.3317 14.4077 12.4884 14.3258C12.6451 14.244 12.8213 14.2067 12.9977 14.2179C13.1742 14.2291 13.3442 14.2884 13.4893 14.3895Z" fill="white"/>
</mask>
<g mask="url(#mask1_85_204)">
<path d="M16.0094 -12.9218C3.8614 -12.9218 0.305489 -12.9094 -0.385192 -12.8524C-2.87889 -12.6464 -4.43035 -12.2544 -6.12057 -11.4197C-7.37299 -10.8143 -8.50573 -9.99002 -9.46476 -8.98622C-11.3185 -7.06106 -12.5001 -4.59421 -12.8349 -1.95016C-13.0328 -0.596605 -13.0901 -0.321625 -13.1035 6.58852C-13.108 8.8916 -13.1035 11.9231 -13.1035 15.9891C-13.1035 28.0571 -13.0901 31.5856 -13.0319 32.2713C-12.8304 34.6829 -12.45 36.2002 -11.6442 37.8604C-10.8672 39.4424 -9.75456 40.8384 -8.3829 41.9522C-7.01124 43.0659 -5.41311 43.8711 -3.69849 44.3122C-2.3129 44.642 -0.896687 44.8284 0.527509 44.8684C1.24818 44.8995 8.59455 44.9218 15.945 44.9218C23.2954 44.9218 30.6462 44.9129 31.349 44.8773C32.8251 44.8496 34.2936 44.6585 35.7272 44.3078C37.4451 43.8697 39.0462 43.0642 40.4186 41.9475C41.791 40.8307 42.9016 39.4297 43.6729 37.8421C44.4924 36.124 44.9588 34.2607 45.0449 32.3612C45.0843 31.8628 45.1008 23.9164 45.1008 15.9806C45.1008 8.04486 45.0829 0.112206 45.0435 -0.386143C44.9605 -2.30678 44.4842 -4.19041 43.6438 -5.92182C43.0307 -7.19542 42.1862 -8.34549 41.1528 -9.31415C39.2104 -11.1504 36.7281 -12.3209 34.0687 -12.6549C32.7093 -12.852 32.4385 -12.9098 25.4815 -12.9218H16.0094Z" fill="url(#paint1_radial_85_204)"/>
</g>
<defs>
<radialGradient id="paint0_radial_85_204" cx="0" cy="0" r="1" gradientUnits="userSpaceOnUse" gradientTransform="translate(6.12991 40.2855) rotate(-90) scale(41.6283 38.7187)">
<stop stop-color="#FFDD55"/>
<stop offset="0.1" stop-color="#FFDD55"/>
<stop offset="0.5" stop-color="#FF543E"/>
<stop offset="1" stop-color="#C837AB"/>
</radialGradient>
<radialGradient id="paint1_radial_85_204" cx="0" cy="0" r="1" gradientUnits="userSpaceOnUse" gradientTransform="translate(-12.4148 -2.07927) rotate(78.6548) scale(18.6065 76.6895)">
<stop stop-color="#3771C8"/>
<stop offset="0.128" stop-color="#3771C8"/>
<stop offset="1" stop-color="#6600FF" stop-opacity="0"/>
</radialGradient>
</defs>
</svg>
